<?xml version="1.0" encoding="iso-8859-1"?>
<svg version="1.1" 
	id="Layer_1" 
	xmlns="http://www.w3.org/2000/svg" xmlns:xlink="http://www.w3.org/1999/xlink" x="24px" y="24px"
	width="24px" height="24px"
	 viewBox="0 0 330 330" style="enable-background:new 0 0 330 330;" xml:space="preserve">
<g id="XMLID_333_" fill="#fff">
	<polygon id="XMLID_334_" points="250,0 20,0 60,30 135,86.25 	"/>
	<path id="XMLID_337_" d="M270,130.145V22.5L240,45l-96,72c-2.666,2-5.834,3-9,3s-6.334-1-9-3L0,22.5V195c0,8.284,6.716,15,15,15
		h106.076c-0.704,4.901-1.076,9.907-1.076,15c0,57.897,47.103,105,105,105s105-47.103,105-105
		C330,183.198,305.443,147.027,270,130.145z M225,300c-41.356,0-75-33.645-75-75s33.644-75,75-75c41.355,0,75,33.645,75,75
		S266.355,300,225,300z"/>
	<path id="XMLID_341_" d="M235.609,184.396c-0.351-0.35-0.72-0.682-1.104-0.997c-0.172-0.142-0.353-0.264-0.529-0.396
		c-0.214-0.161-0.424-0.327-0.648-0.477c-0.216-0.144-0.438-0.269-0.659-0.401c-0.199-0.119-0.395-0.244-0.599-0.354
		c-0.227-0.121-0.46-0.224-0.69-0.333c-0.213-0.1-0.422-0.206-0.639-0.296c-0.227-0.094-0.457-0.169-0.688-0.251
		c-0.231-0.084-0.461-0.172-0.697-0.245c-0.232-0.07-0.467-0.121-0.701-0.18c-0.24-0.061-0.479-0.128-0.723-0.177
		c-0.273-0.054-0.549-0.087-0.823-0.126c-0.21-0.03-0.415-0.07-0.628-0.09c-0.986-0.098-1.979-0.098-2.965,0
		c-0.213,0.021-0.418,0.061-0.628,0.09c-0.274,0.039-0.55,0.071-0.823,0.126c-0.244,0.049-0.482,0.116-0.723,0.177
		c-0.234,0.059-0.469,0.11-0.701,0.18c-0.236,0.072-0.466,0.161-0.697,0.245c-0.23,0.082-0.461,0.158-0.688,0.251
		c-0.217,0.09-0.426,0.196-0.639,0.296c-0.23,0.109-0.464,0.212-0.69,0.333c-0.204,0.11-0.399,0.235-0.599,0.354
		c-0.221,0.132-0.443,0.257-0.659,0.401c-0.224,0.149-0.434,0.316-0.648,0.477c-0.177,0.132-0.357,0.254-0.529,0.396
		c-0.384,0.314-0.753,0.646-1.104,0.997l-29.997,29.998c-5.858,5.858-5.858,15.355,0,21.213c5.857,5.858,15.355,5.858,21.213,0
		l4.394-4.393V255c0,8.284,6.716,15,15,15c8.284,0,15-6.716,15-15v-23.787l4.394,4.393C247.322,238.536,251.161,240,255,240
		c3.839,0,7.678-1.464,10.606-4.394c5.858-5.858,5.858-15.355,0-21.213L235.609,184.396z"/>
</g>

</svg>
